<?xml version="1.0" encoding="utf-8"?>
<!DOCTYPE svg PUBLIC "-//W3C//DTD SVG 1.1//EN" "http://www.w3.org/Graphics/SVG/1.1/DTD/svg11.dtd"[]>
<svg version="1.1"
     xmlns="http://www.w3.org/2000/svg"
     xmlns:xlink="http://www.w3.org/1999/xlink"
     x="0px"
     y="0px"
     viewBox="0 0 1000 1000"
     enable-background="new 0 0 1000 1000"
     xml:space="preserve">
    <metadata> Svg Vector Icons : http://www.onlinewebfonts.com/icon </metadata>
    <g>
        <g transform="translate(0.000000,511.000000) scale(0.100000,-0.100000)">
            <path d="M4281,1414.7c-208.3-110.4-640.6-293.5-1098.1-463.8c-385-142-460.7-160.9-681.6-160.9c-637.4,0-1394.7-236.7-2126.8-672.1L100-43.2v-195.6c0-224,97.8-448,224-508c82-41,627.9-104.1,883.5-104.1h154.6l-34.7,85.2c-44.2,116.7-41,426,6.3,568c179.9,552.2,833,795.2,1341.1,498.6c340.8-198.8,523.8-643.7,413.4-1000.3l-47.3-151.5h2186.7h2186.7L7367-715.3c-94.7,271.4,22.1,684.7,249.3,893C7812,354.4,7998.1,427,8256.9,423.9c375.5,0,669-192.5,829.9-542.7c66.3-148.3,75.7-202,63.1-435.5c-9.5-157.8-3.1-265,15.8-265c97.8,0,492.3,142,552.2,198.8c104.1,97.8,132.5,157.8,164.1,359.7c41,239.8,9.5,419.7-66.3,419.7c-44.2,0-60,22.1-60,82c0,44.2-22.1,176.7-50.5,299.8c-37.9,160.9-69.4,233.5-123.1,268.2c-123.1,78.9-590.1,135.7-1404.2,170.4c-517.5,22.1-877.2,53.7-1088.6,94.7c-410.2,82-893,157.8-994,157.8c-66.3,0-97.8-31.6-167.2-173.5c-69.4-145.2-101-173.5-202-201.9c-217.7-56.8-735.2-97.8-1423.1-113.6c-561.7-15.8-672.1-9.5-605.9,22.1c44.2,22.1,277.7,129.4,520.6,236.7c413.4,183,441.8,201.9,451.2,290.3c6.3,66.3-9.5,104.1-63.1,142C4511.3,1499.9,4432.4,1496.7,4281,1414.7z M333.5-358.7c28.4-85.2,50.5-160.9,50.5-167.2s-41-9.5-91.5-9.5c-82,0-91.5,9.5-110.4,145.1c-12.6,94.7-6.3,164.1,18.9,192.5C245.2-141,270.4-169.4,333.5-358.7z M920.4-525.9l-3.2-119.9l-75.7,88.3c-85.2,97.8-78.9,148.3,18.9,148.3C907.8-409.2,920.4-431.3,920.4-525.9z" />
            <path d="M1829.2,174.6c-321.9-170.4-473.3-545.9-366-911.9c50.5-173.5,312.4-435.4,485.9-485.9c514.3-151.5,990.8,198.8,990.8,725.8c-3.2,454.4-309.2,754.2-763.6,751C2028,250.3,1939.6,231.4,1829.2,174.6z M2435-30.5c230.3-116.8,337.6-388.1,255.6-640.5c-53.7-164.1-252.4-328.2-419.7-353.4c-372.3-56.8-697.3,302.9-596.4,656.3C1775.6-33.7,2128.9,124.1,2435-30.5z" />
            <path d="M7862.4,152.5c-438.6-265.1-504.9-817.3-145.1-1180.1c258.7-255.6,612.1-306.1,921.4-123c243,142,362.9,356.6,366.1,646.9c6.3,441.8-312.4,754.2-763.6,757.3C8061.2,253.5,8010.7,237.7,7862.4,152.5z M8484.1-17.9c157.8-78.9,268.2-239.8,287.1-422.8c18.9-195.6-31.6-315.5-183-454.4c-293.5-265-747.9-119.9-855.1,274.5C7619.5-200.9,8083.3,171.4,8484.1-17.9z" />
        </g>
    </g>
</svg>