<?xml version="1.0" encoding="utf-8"?>
<!-- Svg Vector Icons : http://www.onlinewebfonts.com/icon -->
<!DOCTYPE svg PUBLIC "-//W3C//DTD SVG 1.1//EN" "http://www.w3.org/Graphics/SVG/1.1/DTD/svg11.dtd">
<svg version="1.1" xmlns="http://www.w3.org/2000/svg" xmlns:xlink="http://www.w3.org/1999/xlink" x="0px" y="0px" viewBox="0 0 1000 1000" enable-background="new 0 0 1000 1000" xml:space="preserve">
<metadata> Svg Vector Icons : http://www.onlinewebfonts.com/icon </metadata>
<g><g><g><path d="M198.2,542.9c-41.2,0-74.5,33.3-74.5,74.5c0,3.2,0.3,6.3,0.7,9.4c4.6,36.8,35.9,65.2,73.9,65.2c39,0,71-30,74.2-68.2c0.2-2.1,0.3-4.2,0.3-6.4C272.7,576.2,239.4,542.9,198.2,542.9z M160.9,589.3l15.2,15.2c-1.2,2-2.1,4.2-2.7,6.6H152C153.1,602.9,156.2,595.5,160.9,589.3z M151.9,623.9h21.6c0.6,2.3,1.5,4.5,2.7,6.5l-15.2,15.2C156.2,639.4,153,632,151.9,623.9z M191.8,663.7c-8.1-1.1-15.4-4.3-21.6-9l15.1-15.2c2,1.2,4.2,2,6.5,2.6V663.7z M191.8,592.6c-2.3,0.6-4.5,1.5-6.6,2.8L170,580.1c6.2-4.7,13.6-7.9,21.8-9V592.6z M204.7,571.1c8.1,1.1,15.5,4.3,21.8,9l-15.2,15.2c-2-1.2-4.2-2.2-6.6-2.8V571.1z M204.7,663.7v-21.5c2.3-0.6,4.5-1.5,6.5-2.6l15.2,15.2C220.1,659.4,212.7,662.5,204.7,663.7z M235.5,645.7l-15.3-15.3c1.2-2,2.2-4.1,2.8-6.5h21.4C243.3,632,240.3,639.5,235.5,645.7z M223,611c-0.6-2.3-1.5-4.5-2.7-6.6l15.2-15.2c4.7,6.2,7.8,13.6,8.9,21.8H223z"/><path d="M837.5,542.9c-41.2,0-74.5,33.3-74.5,74.5c0,3.2,0.3,6.3,0.6,9.4c4.6,36.8,35.9,65.2,73.9,65.2c39,0,71-30,74.2-68.2c0.2-2.1,0.3-4.2,0.3-6.4C912,576.2,878.6,542.9,837.5,542.9z M800.1,589.3l15.2,15.2c-1.2,2-2.1,4.2-2.7,6.6h-21.4C792.3,602.9,795.4,595.5,800.1,589.3z M791.2,623.9h21.6c0.6,2.3,1.5,4.5,2.7,6.5l-15.2,15.2C795.5,639.4,792.3,632,791.2,623.9z M831,663.7c-8.1-1.1-15.4-4.3-21.6-9l15.1-15.2c2,1.2,4.2,2,6.5,2.6V663.7z M831,592.6c-2.3,0.6-4.5,1.5-6.6,2.8l-15.2-15.2c6.2-4.7,13.6-7.9,21.8-9L831,592.6L831,592.6z M843.9,571.1c8.1,1.1,15.5,4.3,21.8,9l-15.2,15.2c-2-1.2-4.2-2.2-6.6-2.8V571.1z M843.9,663.7v-21.5c2.3-0.6,4.5-1.5,6.5-2.6l15.2,15.2C859.3,659.4,852,662.5,843.9,663.7z M874.8,645.7l-15.3-15.3c1.2-2,2.2-4.1,2.8-6.5h21.4C882.6,632,879.5,639.5,874.8,645.7z M862.3,611c-0.6-2.3-1.5-4.5-2.7-6.6l15.2-15.2c4.7,6.2,7.8,13.6,8.9,21.8H862.3z"/><path d="M986.5,482.4c-0.5-16.5-5.1-32.5-13.2-46.8l-53.5-94.4c-8.8-15.5-24.8-25.4-42.6-26.3c-89.7-4.5-364.7-15.9-451.2,7.3C367.5,338,219.7,435.1,219.7,435.1S57.1,460.3,26.1,534.5c0,0-13.4,7.8-15.8,27.9c-1.3,10.3,1.8,26,5.2,39.1c3.7,14.3,15.6,25.2,30.2,27.4l70.6,11.1c-1.1-3.8-1.9-7.8-2.4-11.8c-0.4-3.5-0.7-7.1-0.7-10.7c0-46.9,38.2-85.1,85.1-85.1c47,0,85.1,38.2,85.1,85.1c0,2.5-0.2,4.9-0.4,7.2c-0.7,8.3-2.6,16.3-5.6,23.7l8.3,0.4l468.8-12.7c-0.6-2.6-1.1-5.3-1.4-8c-0.5-3.5-0.7-7.1-0.7-10.7c0-46.9,38.2-85.1,85.1-85.1c47,0,85.2,38.2,85.2,85.1c0,2.5-0.2,4.9-0.4,7.2c-0.1,1.6-0.4,3.1-0.6,4.7l40.5-8.3c16.7-3.4,28.5-18.3,27.9-35.4L986.5,482.4z M716.7,332.4l10.8,107.5l-165.3,6.8V331.8C610.5,330.7,665.7,331.2,716.7,332.4z M299.6,454.3l-16.4,0.9c-4.4,0.2-8.5-2.5-10-6.7c-1.5-4.2,0-8.8,3.5-11.5c9.6-7,21.4-15.4,34.5-24.3v27.4C303.3,447,299.6,454.3,299.6,454.3z M340.1,429.2c-1,0-1.9,0.3-2.9,0.4v-33.7c33.3-21.1,71.1-42.1,103.6-52.6c14.8-4.8,41.7-7.8,75.3-9.7v115l-142,5.8C374.1,454.3,369.1,428.1,340.1,429.2z M914.4,418.7c-5,8.6-14,14.1-23.9,14.5L773.7,438l-10.5-104.4c48.3,1.5,88.6,3.3,109,4.4c9.5,0.5,18,5.9,22.4,14.3l20.3,38.5C919.5,399.6,919.3,410.1,914.4,418.7z"/></g></g><g></g><g></g><g></g><g></g><g></g><g></g><g></g><g></g><g></g><g></g><g></g><g></g><g></g><g></g><g></g></g>
</svg>