<?xml version="1.0" encoding="utf-8"?>
<!-- Svg Vector Icons : http://www.onlinewebfonts.com/icon -->
<!DOCTYPE svg PUBLIC "-//W3C//DTD SVG 1.1//EN" "http://www.w3.org/Graphics/SVG/1.1/DTD/svg11.dtd">
<svg version="1.1" xmlns="http://www.w3.org/2000/svg" xmlns:xlink="http://www.w3.org/1999/xlink" x="0px" y="0px" viewBox="0 0 1000 1000" enable-background="new 0 0 1000 1000" xml:space="preserve">
<metadata> Svg Vector Icons : http://www.onlinewebfonts.com/icon </metadata>
<g><g transform="translate(0.000000,511.000000) scale(0.100000,-0.100000)"><path d="M3870.4,1936.7l-755.6-567.4l-1372-283.7C987.2,930.9,308.9,791.7,234.1,776.2L100,750.4V312v-435.8h116.1h116v-335.3v-335.3h-116H100v-245v-245l562.2,5.2l559.6,7.7l18.1,180.5c38.7,345.6,273.4,714.4,593.2,925.8c817.5,541.6,1947.1,7.7,2050.3-972.3l15.5-147l1201.8,5.2l1201.8,7.7l15.5,141.8c31,288.8,147,539,353.3,753.1c250.2,263.1,521,394.6,869.1,422.9c631.8,54.2,1227.6-373.9,1392.6-998c20.6-77.4,38.7-183.1,38.7-234.7v-98h273.4h273.4l190.8,108.3l190.8,108.3v735c0,407.5-7.7,884.6-18.1,1067.7l-15.5,327.5H8089.6H6315.3v722.1v722.1l-843.3-2.6l-845.9-2.6L3870.4,1936.7z M5593.2,1655.6v-593.2H4491.9c-964.5,0-1096.1,5.2-1065.1,38.7c20.6,20.6,335.3,286.3,696.3,590.6l657.6,554.5l407.5,2.6h404.9V1655.6z"/><path d="M2279.2-312.1c-371.4-123.8-603.5-368.8-698.9-740.2c-149.6-585.4,288.8-1183.7,897.5-1230.2c428.1-33.5,814.9,193.4,998,582.9c59.3,126.4,67.1,175.4,67.1,415.2c0,239.8-7.7,288.8-69.6,417.8c-95.4,206.3-275.9,392-479.7,490c-141.8,69.6-198.6,82.5-389.4,90.3C2470-281.2,2341.1-291.5,2279.2-312.1z"/><path d="M7359.7-312.1c-180.5-61.9-309.5-139.3-435.8-265.6c-394.6-402.3-384.2-1039.3,23.2-1426.2c224.4-211.4,479.7-304.3,771.1-278.5c588,49,995.5,562.2,912.9,1155.4c-41.3,314.6-281.1,626.7-582.8,766C7873-281.2,7529.9-258,7359.7-312.1z"/></g></g>
</svg>