<?xml version="1.0" encoding="utf-8"?>
<!-- Svg Vector Icons : http://www.onlinewebfonts.com/icon -->
<!DOCTYPE svg PUBLIC "-//W3C//DTD SVG 1.1//EN" "http://www.w3.org/Graphics/SVG/1.1/DTD/svg11.dtd">
<svg version="1.1" xmlns="http://www.w3.org/2000/svg" xmlns:xlink="http://www.w3.org/1999/xlink" x="0px" y="0px" viewBox="0 0 1000 1000" enable-background="new 0 0 1000 1000" xml:space="preserve">
<metadata> Svg Vector Icons : http://www.onlinewebfonts.com/icon </metadata>
<g><g><g><path d="M86,643.5c12.4,39.6,49.4,68.3,93.1,68.3c43.2,0,79.9-28.2,92.6-67.2c0.9-2.6,1.5-5.2,2.2-7.9c0.6-2.6,1.1-5.2,1.5-7.9c0.7-4.8,1.2-9.6,1.2-14.6c0-53.9-43.7-97.5-97.5-97.5c-53.9,0-97.5,43.7-97.5,97.5c0,4.5,0.4,8.9,1,13.3c0.4,2.7,0.8,5.3,1.4,8C84.5,638.2,85.2,640.9,86,643.5z"/><path d="M682.7,634.6c9.4,44.1,48.5,77.2,95.4,77.2c50.9,0,92.6-38.9,97.1-88.6c0.2-2.6,0.4-5.3,0.4-8c0-0.3,0-0.6,0-0.9c0-2.4-0.2-4.7-0.4-7c-3.6-50.6-45.7-90.5-97.2-90.5c-53.9,0-97.5,43.7-97.5,97.5c0,1.6,0.2,3.1,0.2,4.7c0.1,2.6,0.3,5.3,0.7,7.9C681.8,629.5,682.2,632.1,682.7,634.6z"/><path d="M939.3,331.6c-11.4,1.1-21,6.8-27.2,14.8c-2.6,3.3-4.5,7.1-5.7,11.1c-1.1,3.7-1.6,7.6-1.2,11.7l4,42.3c-3.3-3.2-6-5-6-5c0-59.1-20.7-98.5-20.7-98.5l15.8-10.8l-10.8-8.9c0,0-133,0-244.3,0c-111.3,0-240.4,24.6-256.1,41.4c-15.8,16.8-92.6,90.6-92.6,90.6L68.7,451.7c0,0-32.5,47.3-39.4,60.1c-6.9,12.8-11.8,13.8-11.8,13.8c-27.6,67.3,28.2,92.5,48.8,99.3c-0.3-3.5-0.5-7.1-0.5-10.7c0-62.5,50.8-113.3,113.3-113.3c62.5,0,113.3,50.8,113.3,113.3c0,4.9-0.4,9.7-1,14.4c117.8-1.3,258.2-4.7,373.7-9.1c-0.1-1.8-0.3-3.5-0.3-5.3c0-62.5,50.8-113.3,113.3-113.3c58.9,0,107.5,45.2,112.8,102.8c40.7-13,44.6-60.8,40.2-102.9c2.6,1.6,5.3,3,8.3,4c2.6,0.9,5.3,1.5,8.2,1.8c2.7,0.3,5.4,0.4,8.2,0.1c20.6-1.9,35.8-18.7,34.1-37.5l-10.1-107.2C978,343.3,959.8,329.6,939.3,331.6z"/></g></g><g></g><g></g><g></g><g></g><g></g><g></g><g></g><g></g><g></g><g></g><g></g><g></g><g></g><g></g><g></g></g>
</svg>